<svg width="41" height="40" viewBox="0 0 41 40" fill="none" xmlns="http://www.w3.org/2000/svg">
<path d="M40 20C40 31.0457 31.0457 40 20 40C8.9543 40 0 31.0457 0 20C0 8.9543 8.9543 0 20 0C31.0457 0 40 8.9543 40 20Z" fill="#4B286D"/>
<path d="M11.8519 19.2593C8.51854 19.2593 6.66669 21.8519 6.66669 21.8519C13.1923 24.6071 15.8505 26.8212 20 31.1111C34.8148 7.57601 40 1.48149 40 1.48149C40 1.48149 25.5556 10.7408 20 23.3333C20 23.3333 15.1853 19.2593 11.8519 19.2593Z" fill="#C8B4DA" stroke="#C8B4DA"/>
</svg>
